<svg version="1.1" xmlns="http://www.w3.org/2000/svg" viewBox="0 0 100 100"><style type="text/css">.st0{fill:#3FA9F5;}</style><g><path class="st0" d="M67.9,41.1c0,13-9.9,28-28,28c-5.6,0-10.8-1.6-15.1-4.4c0.8,0.1,1.6,0.1,2.4,0.1c4.6,0,8.8-1.6,12.2-4.2
		c-4.3-0.1-7.9-2.9-9.2-6.8c0.6,0.1,1.2,0.2,1.9,0.2c0.9,0,1.8-0.1,2.6-0.3c-4.5-0.9-7.9-4.9-7.9-9.7v-0.1c1.3,0.7,2.8,1.2,4.4,1.2
		c-2.6-1.8-4.4-4.8-4.4-8.2c0-1.8,0.5-3.5,1.3-5c4.8,6,12.1,9.9,20.3,10.3c-0.2-0.7-0.2-1.5-0.2-2.3c0-5.4,4.4-9.8,9.8-9.8
		c2.8,0,5.4,1.2,7.2,3.1c2.2-0.4,4.4-1.2,6.2-2.4c-0.7,2.3-2.3,4.2-4.3,5.4c2-0.2,3.9-0.8,5.7-1.5c-1.3,1.9-3,3.7-4.9,5.1
		C67.9,40.2,67.9,40.6,67.9,41.1z"/></g></svg>
