<svg xmlns="http://www.w3.org/2000/svg" viewBox="0 0 100 100"><path d="M74.3 48.2c0 10.4-6.4 19.3-15.7 22.4-1.2.2-1.6-.5-1.6-1.1v-7.8c0-2.2-.7-3.6-1.6-4.3 5.2-.6 10.8-1.3 10.8-10.4 0-2.6-.9-3.9-2.4-5.5.2-.6 1-3.1-.2-6.4-2-.6-6.5 2.5-6.5 2.5-1.9-.5-3.9-.8-5.9-.8s-4 .3-5.9.8c0 0-4.5-3.1-6.5-2.5-1.3 3.2-.5 5.8-.2 6.4-1.5 1.6-2.2 2.9-2.2 5.5 0 9 5.3 9.8 10.5 10.4-.7.6-1.3 1.7-1.5 3.2-1.3.6-4.8 1.7-6.8-2-1.3-2.2-3.6-2.4-3.6-2.4-2.3 0-.2 1.4-.2 1.4 1.5.7 2.6 3.4 2.6 3.4 1.4 4.2 7.9 2.8 7.9 2.8v5.8c0 .6-.4 1.3-1.6 1.1-9.3-3.1-15.9-12-15.9-22.4 0-13 9.9-22.9 23-22.9 12.9-.1 23.5 9.8 23.5 22.8zm-38 8.6c.2.1.3.2.2.4-.1.1-.3.2-.4.1-.2-.1-.3-.2-.2-.4.1-.1.2-.1.4-.1zm1.1.9c.2.2.2.4.1.5s-.3.1-.5-.1-.2-.4-.1-.5.3 0 .5.1zm1 1.3c.2.2.2.5 0 .6-.1.1-.4 0-.5-.2s-.1-.5 0-.6.4 0 .5.2zm1.1 1.3c.2.2.2.5.1.6s-.3.1-.6-.1c-.2-.2-.3-.5-.1-.6.1-.1.4-.1.6.1zm1.5.9c.3.1.5.3.4.5s-.3.3-.6.2-.5-.3-.4-.5.4-.3.6-.2zm1.9 1c-.3 0-.5-.1-.5-.3s.2-.3.5-.3.5.1.5.3c-.1.1-.3.3-.5.3zm2.2-.7c0 .2-.2.4-.4.4-.3.1-.5-.1-.6-.2 0-.2.2-.4.4-.5.3 0 .6.1.6.3z"/></svg>