<svg xmlns="http://www.w3.org/2000/svg" viewBox="0 0 100 100"><path d="M67.9 41.1c0 13-9.9 28-28 28-5.6 0-10.8-1.6-15.1-4.4.8.1 1.6.1 2.4.1 4.6 0 8.8-1.6 12.2-4.2-4.3-.1-7.9-2.9-9.2-6.8.6.1 1.2.2 1.9.2.9 0 1.8-.1 2.6-.3-4.5-.9-7.9-4.9-7.9-9.7v-.1c1.3.7 2.8 1.2 4.4 1.2-2.6-1.8-4.4-4.8-4.4-8.2 0-1.8.5-3.5 1.3-5 4.8 6 12.1 9.9 20.3 10.3-.2-.7-.2-1.5-.2-2.3 0-5.4 4.4-9.8 9.8-9.8 2.8 0 5.4 1.2 7.2 3.1 2.2-.4 4.4-1.2 6.2-2.4-.7 2.3-2.3 4.2-4.3 5.4 2-.2 3.9-.8 5.7-1.5-1.3 1.9-3 3.7-4.9 5.1v1.3z" fill="#3fa9f5"/></svg>